<?xml version="1.0" encoding="UTF-8"?>
<svg version="1.1" xmlns="http://www.w3.org/2000/svg" width="263" height="300">
<path d="M0 0 C8.02445425 2.35733226 14.63494672 2.56936341 22.89648438 1.40039062 C24.1571875 1.23539063 25.41789062 1.07039063 26.71679688 0.90039062 C27.80734375 0.73539063 28.89789063 0.57039063 30.02148438 0.40039062 C56.14430797 -3.10341093 83.14136737 -2.1323506 109.18383789 1.47167969 C120.74078626 3.00215709 129.82723713 0.76725701 140.90039062 -2.515625 C147.52107603 -4.41184072 152.88142181 -5.50412815 159.64648438 -3.47460938 C163.56357692 -1.21474829 164.52373689 0.12064845 165.89648438 4.40039062 C167.37284475 13.91471304 161.8430496 21.79822276 156.45898438 29.27539062 C155.68748047 30.26152344 155.68748047 30.26152344 154.90039062 31.26757812 C152.6514943 36.04538899 155.58428101 42.11458996 156.91503906 46.98608398 C169.54399406 93.34273705 171.47882485 143.66521998 157.79907227 190.12768555 C156.39447879 195.22061917 157.16211931 198.10399564 159.74414062 202.66210938 C160.48099309 203.80495894 161.21932214 204.94685756 161.95898438 206.08789062 C165.63105901 212.12689526 167.55384679 217.23076358 165.89648438 224.40039062 C164.12133328 227.62196112 162.78112181 228.88435212 159.64648438 230.71289062 C151.18893788 232.82727725 143.23613782 230.24621608 135.02929688 228.17773438 C127.18456512 226.27631047 120.66298208 225.92986475 112.64648438 227.33789062 C102.34601484 229.13913854 92.01770122 229.55739793 81.58007812 229.56835938 C79.87526024 229.57335197 79.87526024 229.57335197 78.13600159 229.57844543 C75.74521281 229.58347436 73.35441711 229.58585502 70.96362305 229.58569336 C67.36755359 229.5878703 63.77179628 229.6060438 60.17578125 229.625 C45.85962717 229.65970987 31.78781939 229.25122178 17.64819336 226.84838867 C9.66255696 225.54826954 2.6578603 226.91716611 -5.10351562 228.90039062 C-20.93269421 232.9451393 -20.93269421 232.9451393 -28.47851562 230.15039062 C-32.10413902 227.73330836 -33.6030566 225.90176769 -34.97851562 221.77539062 C-35.19870248 215.83034545 -33.95918461 210.45747564 -29.90820312 205.96679688 C-27.19674337 202.95555527 -24.97714636 200.38759003 -24.10351562 196.40039062 C-24.59056949 188.86602112 -27.11162624 181.55899268 -29.25244141 174.36035156 C-41.08952667 133.19201487 -36.08358053 85.47325912 -24.37304688 44.99023438 C-24.15253662 44.18561768 -23.93202637 43.38100098 -23.70483398 42.55200195 C-23.21592352 40.80260369 -22.66481282 39.07067903 -22.09570312 37.34570312 C-22.10845847 32.53693896 -24.80807115 29.24820343 -27.41601562 25.33789062 C-35.76637091 12.47099097 -35.76637091 12.47099097 -34.64648438 4.55273438 C-33.85202696 1.40348231 -32.44595531 -0.39102339 -30.10351562 -2.59960938 C-20.85504361 -8.10884628 -9.33230968 -2.9409237 0 0 Z M-13.10351562 14.40039062 C-11.45670519 18.91712799 -9.09594506 22.49729131 -6.34570312 26.41210938 C-3.17348706 34.04338388 -5.428216 41.7393285 -7.85351562 49.27539062 C-21.2992516 93.70823005 -21.75941266 142.61265841 -8.6784668 187.20141602 C-7.09773688 192.71193858 -5.86978618 197.72919659 -8.38085938 203.16601562 C-8.92871094 203.98585937 -9.4765625 204.80570313 -10.04101562 205.65039062 C-11.78935658 208.31216739 -13.09199821 210.36583837 -14.10351562 213.40039062 C-6.82801956 212.20669127 -6.82801956 212.20669127 0.27148438 210.27539062 C8.47106037 208.29618263 16.55850522 209.29653377 24.80343628 210.4760437 C38.66754257 212.4322485 52.28753464 212.87309875 66.27148438 212.77539062 C67.38113556 212.77273193 68.49078674 212.77007324 69.63406372 212.76733398 C84.19073558 212.72646764 98.43009433 212.30089767 112.83007812 210.05664062 C120.47009171 208.92122677 128.48103624 208.45871868 135.89648438 210.90039062 C139.26457112 211.98298993 141.26585624 212.40039062 144.89648438 212.40039062 C143.90439044 209.72936848 142.90473239 207.41292761 141.33398438 205.02539062 C137.45690664 197.94550954 139.50076219 191.98232092 141.58398438 184.65039062 C146.28209366 167.05880936 149.41541384 148.6392387 149.89648438 130.40039062 C149.91694824 129.69527344 149.93741211 128.99015625 149.95849609 128.26367188 C150.65173059 100.90096152 147.10405635 74.03976175 139.27075195 47.82275391 C135.12134291 33.86180476 135.12134291 33.86180476 136.78710938 28.57226562 C137.23570312 27.77304687 137.68429688 26.97382812 138.14648438 26.15039062 C138.58476562 25.34085938 139.02304688 24.53132813 139.47460938 23.69726562 C140.89648437 21.40039063 140.89648437 21.40039063 142.56835938 19.22851562 C144.09240453 17.50731837 144.09240453 17.50731837 143.89648438 15.40039062 C139.74849413 15.85125913 136.10186788 16.62336778 132.14648438 17.96289062 C123.14402196 20.74512834 113.99381313 19.32478552 104.83398438 17.96289062 C94.84840733 16.57685701 84.97184623 15.68327397 74.89648438 15.40039062 C73.58421875 15.35914062 72.27195312 15.31789063 70.91992188 15.27539062 C55.12537054 14.95324968 39.14643837 16.27488285 23.52148438 18.52539062 C10.06300996 20.38747426 -0.27487601 18.39152295 -13.10351562 14.40039062 Z " fill="#DB7421" transform="translate(64.103515625,35.599609375)"/>
<path d="M0 0 C0.66 0 1.32 0 2 0 C2 0.66 2 1.32 2 2 C2.99 2.33 3.98 2.66 5 3 C3.68 3.66 2.36 4.32 1 5 C2.65 4.67 4.3 4.34 6 4 C5.21085079 5.60540659 4.41858235 7.20928016 3.625 8.8125 C2.96371094 10.15248047 2.96371094 10.15248047 2.2890625 11.51953125 C1 14 1 14 -1 17 C-0.12341631 22.34716052 1.41374283 27.43010586 2.9375 32.625 C8.33151857 51.23133373 8.33151857 51.23133373 8 60 C8.99 60.33 9.98 60.66 11 61 C16.06656255 98.43353493 15.65110428 137.22059866 4.90258789 173.72729492 C3.49799441 178.82022854 4.26563494 181.70360501 6.84765625 186.26171875 C7.58450871 187.40456831 8.32283777 188.54646694 9.0625 189.6875 C12.73457464 195.72650463 14.65736242 200.83037295 13 208 C11.22484891 211.2215705 9.88463743 212.4839615 6.75 214.3125 C-1.70754649 216.42688662 -9.66034655 213.84582546 -17.8671875 211.77734375 C-25.71191925 209.87591985 -32.23350229 209.52947412 -40.25 210.9375 C-50.55046954 212.73874791 -60.87878315 213.15700731 -71.31640625 213.16796875 C-73.02122414 213.17296135 -73.02122414 213.17296135 -74.76048279 213.17805481 C-77.15127157 213.18308374 -79.54206727 213.18546439 -81.93286133 213.18530273 C-85.52893079 213.18747968 -89.12468809 213.20565318 -92.72070312 213.22460938 C-107.0368572 213.25931925 -121.10866498 212.85083115 -135.24829102 210.44799805 C-143.23392741 209.14787891 -150.23862408 210.51677549 -158 212.5 C-173.5668491 216.47771697 -173.5668491 216.47771697 -181 214 C-182.17755913 211.05610218 -182.03348696 210.10046087 -181 207 C-181.66 206.67 -182.32 206.34 -183 206 C-182.01 206 -181.02 206 -180 206 C-179.505 205.01 -179.505 205.01 -179 204 C-175.96376754 202.04813627 -173.58222619 201.62292356 -170 202 C-169.34 202.66 -168.68 203.32 -168 204 C-167.01 204 -166.02 204 -165 204 C-165.66 202.68 -166.32 201.36 -167 200 C-154.58323759 192.75688859 -140.86371817 193.10547764 -127.10475159 195.08746338 C-114.13347705 196.92452656 -101.40902028 197.40767052 -88.3215332 197.28125 C-85.01176847 197.24951355 -81.70248155 197.24019845 -78.39257812 197.234375 C-76.25259839 197.22522231 -74.11262343 197.21485215 -71.97265625 197.203125 C-71.00070816 197.19887512 -70.02876007 197.19462524 -69.02735901 197.19024658 C-59.23578738 197.42736951 -59.23578738 197.42736951 -50 195 C-46.99129678 194.64288155 -43.96253847 194.53335459 -40.9375 194.375 C-40.09638672 194.3234375 -39.25527344 194.271875 -38.38867188 194.21875 C-36.26105823 194.10216843 -34.13030492 194.0461741 -32 194 C-31.67 194.33 -31.34 194.66 -31 195 C-26.85719496 195.14536158 -23.02424318 195.0454813 -18.9375 194.375 C-14.51732446 193.9540309 -12.11845551 194.54138034 -8 196 C-8.42152344 195.35933594 -8.84304687 194.71867188 -9.27734375 194.05859375 C-10.09912109 192.76115234 -10.09912109 192.76115234 -10.9375 191.4375 C-11.48277344 190.59058594 -12.02804688 189.74367187 -12.58984375 188.87109375 C-16.20483838 181.51092462 -14.4350515 175.72035036 -12.3125 168.25 C-7.61439071 150.65841873 -4.48107053 132.23884807 -4 114 C-3.97953613 113.29488281 -3.95907227 112.58976562 -3.93798828 111.86328125 C-3.50527629 94.78367398 -4.67668009 77.70558006 -7.58203125 60.86328125 C-8.01280238 57.91229774 -8.13910271 55.04143075 -8.25 52.0625 C-8.73378818 44.51726516 -10.44476233 27.55523767 -16 22 C-16.94301854 14.69160631 -15.29237154 10.21833559 -11.15625 4.1328125 C-8.64240676 1.64629364 -7.5469904 1.30147313 -4.0625 1.3125 C-1.72265625 1.61328125 -1.72265625 1.61328125 0 2 C0 1.34 0 0.68 0 0 Z " fill="#E17722" transform="translate(217,52)"/>
<path d="M0 0 C0.66 0 1.32 0 2 0 C5.93027935 6.59725462 8.42689143 12.2428993 7 20 C5.95075098 22.80139302 4.82168873 24.55373228 3 27 C-5.343026 29.78100867 -13.66974336 26.84345705 -21.8671875 24.77734375 C-29.71191925 22.87591985 -36.23350229 22.52947412 -44.25 23.9375 C-54.55046954 25.73874791 -64.87878315 26.15700731 -75.31640625 26.16796875 C-77.02122414 26.17296135 -77.02122414 26.17296135 -78.76048279 26.17805481 C-81.15127157 26.18308374 -83.54206727 26.18546439 -85.93286133 26.18530273 C-89.52893079 26.18747968 -93.12468809 26.20565318 -96.72070312 26.22460938 C-111.0368572 26.25931925 -125.10866498 25.85083115 -139.24829102 23.44799805 C-147.23392741 22.14787891 -154.23862408 23.51677549 -162 25.5 C-177.5668491 29.47771697 -177.5668491 29.47771697 -185 27 C-186.17755913 24.05610218 -186.03348696 23.10046087 -185 20 C-185.66 19.67 -186.32 19.34 -187 19 C-186.01 19 -185.02 19 -184 19 C-183.67 18.34 -183.34 17.68 -183 17 C-179.96376754 15.04813627 -177.58222619 14.62292356 -174 15 C-173.34 15.66 -172.68 16.32 -172 17 C-171.01 17 -170.02 17 -169 17 C-169.66 15.68 -170.32 14.36 -171 13 C-158.58323759 5.75688859 -144.86371817 6.10547764 -131.10475159 8.08746338 C-118.13347705 9.92452656 -105.40902028 10.40767052 -92.3215332 10.28125 C-89.01176847 10.24951355 -85.70248155 10.24019845 -82.39257812 10.234375 C-80.25259839 10.22522231 -78.11262343 10.21485215 -75.97265625 10.203125 C-75.00070816 10.19887512 -74.02876007 10.19462524 -73.02735901 10.19024658 C-63.23578738 10.42736951 -63.23578738 10.42736951 -54 8 C-50.99129678 7.64288155 -47.96253847 7.53335459 -44.9375 7.375 C-44.09638672 7.3234375 -43.25527344 7.271875 -42.38867188 7.21875 C-40.26105823 7.10216843 -38.13030492 7.0461741 -36 7 C-35.67 7.33 -35.34 7.66 -35 8 C-29.54121353 8.19153637 -24.40196781 7.77170969 -19 7 C-19 7.99 -19 8.98 -19 10 C-16.03 10.33 -13.06 10.66 -10 11 C-9.67 10.34 -9.34 9.68 -9 9 C-7 7.625 -7 7.625 -4 7 C-0.84210707 8.03676217 2.06348613 9.45177264 5 11 C4.67 10.34 4.34 9.68 4 9 C3.360625 8.87625 2.72125 8.7525 2.0625 8.625 C0 8 0 8 -1.125 6.0625 C-1.558125 5.0415625 -1.558125 5.0415625 -2 4 C-2.99 3.01 -2.99 3.01 -4 2 C-2.68 2 -1.36 2 0 2 C0 1.34 0 0.68 0 0 Z " fill="#EC7D27" transform="translate(221,239)"/>
<path d="M0 0 C12.19215363 3.29494989 23.6602886 4.31088557 36.24121094 4.18212891 C46.59945266 4.20790918 46.59945266 4.20790918 49.62109375 7.06640625 C51.67275783 10.34906878 51.99441402 11.91911483 51.28125 15.72265625 C48.41773748 20.32472995 48.41773748 20.32472995 45.49902344 21.34667969 C30.93241234 23.8161404 14.51488228 22.28480607 0.28125 18.72265625 C-1.21688511 18.36870308 -2.71561222 18.01724866 -4.21484375 17.66796875 C-6.43796754 17.14969449 -8.65917794 16.62776869 -10.87548828 16.08105469 C-17.47317782 14.46339062 -23.81399428 13.61284851 -30.60546875 13.546875 C-31.87326172 13.52302734 -33.14105469 13.49917969 -34.44726562 13.47460938 C-37.09814019 13.43145256 -39.7492361 13.4003055 -42.40039062 13.38085938 C-43.66431641 13.35314453 -44.92824219 13.32542969 -46.23046875 13.296875 C-47.95463013 13.27500122 -47.95463013 13.27500122 -49.71362305 13.25268555 C-53.34219901 12.61269543 -54.53315179 11.64497295 -56.71875 8.72265625 C-57.28125 5.28515625 -57.28125 5.28515625 -56.71875 1.72265625 C-46.11191933 -11.83051627 -14.72054837 -4.05474388 0 0 Z " fill="#DD7422" transform="translate(134.71875,140.27734375)"/>
<path d="M0 0 C1.02092239 -0.00442612 1.02092239 -0.00442612 2.06246948 -0.00894165 C13.19996427 -0.01995276 23.29028814 1.2255175 34 4.3125 C36.20426068 4.87050872 38.41246354 5.41326597 40.625 5.9375 C41.63691406 6.17984375 42.64882812 6.4221875 43.69140625 6.671875 C46.23140997 7.1636821 48.6490046 7.51417392 51.21484375 7.765625 C52.29741455 7.87463135 52.29741455 7.87463135 53.40185547 7.98583984 C54.80659718 8.11694907 56.21342966 8.22778756 57.62158203 8.31494141 C61.24929641 8.64556162 62.79410252 9.11057482 65.4296875 11.6953125 C67.38731178 14.95801964 67.70166203 16.57030249 67 20.3125 C64.34339152 23.70438633 62.87720276 25.15612526 58.58300781 25.92163086 C48.58964934 25.71097298 39.43973011 24.26946794 29.75 21.875 C16.17913949 18.59209193 3.55029917 17.10554969 -10.43359375 17.5703125 C-14.225237 17.29621781 -16.02177943 16.61714171 -19 14.3125 C-20.42662219 11.45925563 -20.31033868 9.47795451 -20 6.3125 C-14.83475995 -1.43536008 -8.58006952 0.03223052 0 0 Z " fill="#DC7520" transform="translate(110,103.6875)"/>
<path d="M0 0 C10.99084929 2.72816211 21.26338198 4.46710779 32.61938477 4.36157227 C39.27840264 4.37060022 39.27840264 4.37060022 42.40258789 6.60351562 C44.26971625 9.43234298 44.7591639 11.37261522 44.82836914 14.76367188 C43.76586914 17.51367188 43.76586914 17.51367188 41.82836914 19.76367188 C36.90051859 21.90231415 32.3593371 22.14949242 27.07836914 22.13867188 C26.24490967 22.13706055 25.4114502 22.13544922 24.55273438 22.13378906 C16.45386382 21.9779093 9.00040907 20.32378629 1.18334961 18.34130859 C-3.03620398 17.30632375 -7.28852291 16.43633923 -11.54663086 15.57617188 C-12.38830811 15.40520996 -13.22998535 15.23424805 -14.09716797 15.05810547 C-19.67677014 13.96190561 -25.16755555 13.25219798 -30.85913086 13.03710938 C-33.38718541 12.73818401 -35.01140818 12.09230441 -37.17163086 10.76367188 C-39.47159986 7.54371528 -39.5755045 4.64085879 -39.17163086 0.76367188 C-32.91146899 -10.26613714 -9.91330369 -2.46352827 0 0 Z " fill="#E47927" transform="translate(127.171630859375,173.236328125)"/>
<path d="M0 0 C11.55 0 23.1 0 35 0 C35.495 2.475 35.495 2.475 36 5 C36.66 4.34 37.32 3.68 38 3 C40.20703125 2.875 40.20703125 2.875 42.8125 3 C46.79677142 3.09146104 49.33930541 2.62697537 53 1 C56.3125 0.875 56.3125 0.875 59 1 C60 4 60 4 59 7 C58.34 7 57.68 7 57 7 C57 7.66 57 8.32 57 9 C57.61875 9.28875 58.2375 9.5775 58.875 9.875 C61 11 61 11 63 13 C61.75108386 13.48198463 60.50081192 13.96045677 59.25 14.4375 C58.20585937 14.83775391 58.20585937 14.83775391 57.140625 15.24609375 C47.27474937 18.72075433 37.06103344 16.79147177 27 15 C26.505 13.515 26.505 13.515 26 12 C25.34 12 24.68 12 24 12 C24 12.66 24 13.32 24 14 C17.25 14.125 17.25 14.125 15 13 C14.40155273 13.15138428 13.80310547 13.30276855 13.18652344 13.45874023 C10.61960045 14.09416545 8.64220433 13.93242362 6.015625 13.66015625 C5.08105469 13.56669922 4.14648438 13.47324219 3.18359375 13.37695312 C2.21550781 13.27318359 1.24742187 13.16941406 0.25 13.0625 C-0.73355469 12.96259766 -1.71710938 12.86269531 -2.73046875 12.75976562 C-5.15434959 12.51267098 -7.57738907 12.25920287 -10 12 C-9.34 11.67 -8.68 11.34 -8 11 C-7.87625 10.236875 -7.7525 9.47375 -7.625 8.6875 C-6.8498977 5.3545601 -5.6533783 4.10709453 -3 2 C-2.01 2 -1.02 2 0 2 C0 1.34 0 0.68 0 0 Z " fill="#DB7521" transform="translate(140,37)"/>
<path d="M0 0 C0.66 0 1.32 0 2 0 C1.96519531 1.82144531 1.96519531 1.82144531 1.9296875 3.6796875 C1.78451361 15.14161993 2.26716013 26.4323214 3.28857422 37.85107422 C3.87917751 44.58984724 4.12064224 51.2356569 4 58 C4.66 58.33 5.32 58.66 6 59 C4.02 59.495 4.02 59.495 2 60 C2.33 60.66 2.66 61.32 3 62 C2.01 62 1.02 62 0 62 C0 62.66 0 63.32 0 64 C-0.66 64 -1.32 64 -2 64 C-2 64.66 -2 65.32 -2 66 C-2.66 66 -3.32 66 -4 66 C-4 66.99 -4 67.98 -4 69 C-4.99 68.67 -5.98 68.34 -7 68 C-7.33 65.36 -7.66 62.72 -8 60 C-8.66 60 -9.32 60 -10 60 C-10 53.73 -10 47.46 -10 41 C-9.34 41 -8.68 41 -8 41 C-8.33 40.34 -8.66 39.68 -9 39 C-9.99 39.495 -9.99 39.495 -11 40 C-11.84897366 32.54116001 -12.10854706 25.12479651 -12.125 17.625 C-12.12951172 16.76938477 -12.13402344 15.91376953 -12.13867188 15.03222656 C-12.12819576 10.57464086 -11.90033689 6.38735598 -11 2 C-9.68 2 -8.36 2 -7 2 C-6.67 2.99 -6.34 3.98 -6 5 C-5.67 3.68 -5.34 2.36 -5 1 C-3.68 1.33 -2.36 1.66 -1 2 C-0.67 1.34 -0.34 0.68 0 0 Z " fill="#E47924" transform="translate(43,139)"/>
<path d="M0 0 C11.31766648 3.32734541 20.92712739 4.10570403 32.5625 2.4375 C32.2325 3.0975 31.9025 3.7575 31.5625 4.4375 C29.05078125 5.0703125 29.05078125 5.0703125 25.875 5.5625 C24.83988281 5.73007812 23.80476563 5.89765625 22.73828125 6.0703125 C16.7298198 6.76501776 12.34714979 6.1330008 6.5625 4.4375 C3.89841134 4.0114331 1.24730797 3.72011137 -1.4375 3.4375 C-1.4375 2.7775 -1.4375 2.1175 -1.4375 1.4375 C-2.79875 1.2209375 -2.79875 1.2209375 -4.1875 1 C-7.4375 0.4375 -7.4375 0.4375 -9.265625 -0.08203125 C-12.0180314 -0.69092691 -14.61967977 -0.7702327 -17.4375 -0.8125 C-18.46875 -0.83828125 -19.5 -0.8640625 -20.5625 -0.890625 C-23.8180122 -0.51907198 -25.12872976 0.15010726 -27.4375 2.4375 C-29.26467314 7.91901942 -28.77252713 12.28374479 -26.43115234 17.51953125 C-25.37490457 19.55832303 -24.18362161 21.41034567 -22.88671875 23.3046875 C-22.43619141 23.96339844 -21.98566406 24.62210938 -21.52148438 25.30078125 C-20.58773013 26.64590974 -19.63696009 27.97937869 -18.66992188 29.30078125 C-16.83268811 32.03663298 -15.40879643 34.16383464 -15.48461914 37.52832031 C-15.99567731 39.89213078 -16.69124492 42.13717156 -17.4375 44.4375 C-17.93810774 46.3933706 -18.4284708 48.3518835 -18.91015625 50.3125 C-19.43837946 52.35461356 -19.96835035 54.3962758 -20.5 56.4375 C-20.76876953 57.48550781 -21.03753906 58.53351563 -21.31445312 59.61328125 C-21.57291016 60.60714844 -21.83136719 61.60101563 -22.09765625 62.625 C-22.33105713 63.52605469 -22.56445801 64.42710938 -22.80493164 65.35546875 C-23.4375 67.4375 -23.4375 67.4375 -24.4375 68.4375 C-24.83693176 70.95945967 -25.18829848 73.46713656 -25.5 76 C-25.59087891 76.71091797 -25.68175781 77.42183594 -25.77539062 78.15429688 C-25.99989503 79.91488403 -26.21918397 81.67613478 -26.4375 83.4375 C-25.4475 83.7675 -24.4575 84.0975 -23.4375 84.4375 C-23.4375 85.4275 -23.4375 86.4175 -23.4375 87.4375 C-22.7775 87.4375 -22.1175 87.4375 -21.4375 87.4375 C-21.1075 88.7575 -20.7775 90.0775 -20.4375 91.4375 C-21.0975 91.4375 -21.7575 91.4375 -22.4375 91.4375 C-22.4375 92.0975 -22.4375 92.7575 -22.4375 93.4375 C-23.0975 93.4375 -23.7575 93.4375 -24.4375 93.4375 C-24.4375 95.0875 -24.4375 96.7375 -24.4375 98.4375 C-22.4575 97.9425 -22.4575 97.9425 -20.4375 97.4375 C-21.4275 96.7775 -22.4175 96.1175 -23.4375 95.4375 C-22.4475 94.9425 -22.4475 94.9425 -21.4375 94.4375 C-19.07768187 95.37328995 -16.74118736 96.37097808 -14.4375 97.4375 C-14.1075 93.1475 -13.7775 88.8575 -13.4375 84.4375 C-12.7775 84.4375 -12.1175 84.4375 -11.4375 84.4375 C-11.54408936 86.03513184 -11.54408936 86.03513184 -11.65283203 87.66503906 C-13.67403406 118.66740832 -14.57190227 149.5285815 -6.25 179.828125 C-5.48431032 183.22955416 -5.46228682 184.29572277 -6.4375 187.4375 C-9.87564942 179.46724453 -11.4375 171.12425054 -11.4375 162.4375 C-12.0975 162.4375 -12.7575 162.4375 -13.4375 162.4375 C-15.75838606 143.12682667 -17.2689242 123.85059649 -15.4375 104.4375 C-16.0975 104.4375 -16.7575 104.4375 -17.4375 104.4375 C-17.7675 105.7575 -18.0975 107.0775 -18.4375 108.4375 C-18.4375 107.7775 -18.4375 107.1175 -18.4375 106.4375 C-19.7575 106.4375 -21.0775 106.4375 -22.4375 106.4375 C-22.4375 107.7575 -22.4375 109.0775 -22.4375 110.4375 C-23.4275 110.1075 -24.4175 109.7775 -25.4375 109.4375 C-25.1075 108.4475 -24.7775 107.4575 -24.4375 106.4375 C-25.7575 106.4375 -27.0775 106.4375 -28.4375 106.4375 C-28.46694154 110.54165117 -28.48444527 114.64577456 -28.5 118.75 C-28.50837891 119.89791016 -28.51675781 121.04582031 -28.52539062 122.22851562 C-28.54558977 129.35881349 -28.23468119 136.35094572 -27.4375 143.4375 C-26.7775 143.1075 -26.1175 142.7775 -25.4375 142.4375 C-25.4375 143.4275 -25.4375 144.4175 -25.4375 145.4375 C-26.0975 145.4375 -26.7575 145.4375 -27.4375 145.4375 C-27.1075 151.0475 -26.7775 156.6575 -26.4375 162.4375 C-27.0975 162.4375 -27.7575 162.4375 -28.4375 162.4375 C-33.77402959 123.00935417 -31.79099682 84.34433816 -20.70703125 46.02734375 C-20.486521 45.22272705 -20.26601074 44.41811035 -20.03881836 43.58911133 C-19.54990789 41.83971306 -18.9987972 40.10778841 -18.4296875 38.3828125 C-18.44244284 33.57404833 -21.14205553 30.28531281 -23.75 26.375 C-32.10035529 13.50810034 -32.10035529 13.50810034 -30.98046875 5.58984375 C-30.18601133 2.44059168 -28.77993969 0.64608599 -26.4375 -1.5625 C-18.11609305 -6.52340187 -8.49962074 -2.65177522 0 0 Z " fill="#D9711F" transform="translate(60.4375,34.5625)"/>
<path d="M0 0 C1.67581727 0.23341741 3.34175409 0.53874458 5 0.875 C15.83975596 3.06142805 26.63584123 3.28068072 37.66601562 3.51757812 C39.42268555 3.56881836 39.42268555 3.56881836 41.21484375 3.62109375 C42.27823975 3.6461499 43.34163574 3.67120605 44.43725586 3.69702148 C47 4 47 4 49 6 C48.7578125 8.3828125 48.7578125 8.3828125 48.125 11.125 C47.92132813 12.03507813 47.71765625 12.94515625 47.5078125 13.8828125 C47.34023437 14.58148438 47.17265625 15.28015625 47 16 C43.33043403 17.22318866 39.87678997 17.23116124 36.05078125 17.31640625 C34.89185616 17.3475779 34.89185616 17.3475779 33.70951843 17.37937927 C31.2439352 17.44471038 28.77824639 17.50368315 26.3125 17.5625 C24.63996309 17.60570087 22.96743681 17.64931566 21.29492188 17.69335938 C17.1967225 17.8003749 13.09841704 17.90168857 9 18 C9 17.34 9 16.68 9 16 C7.783125 15.896875 6.56625 15.79375 5.3125 15.6875 C1.58420029 15.21154685 -1.02880488 14.43097783 -4 12 C-5.0625 10.0625 -5.0625 10.0625 -5 8 C-3.70896357 6.6256709 -2.3743291 5.29103643 -1 4 C-1 3.01 -1 2.02 -1 1 C-0.67 0.67 -0.34 0.34 0 0 Z " fill="#E37824" transform="translate(135,143)"/>
<path d="M0 0 C3.3 0.33 6.6 0.66 10 1 C10 1.66 10 2.32 10 3 C9.34 3 8.68 3 8 3 C8 3.66 8 4.32 8 5 C8.99 5 9.98 5 11 5 C11 5.99 11 6.98 11 8 C11.66 7.67 12.32 7.34 13 7 C13.33 6.01 13.66 5.02 14 4 C16 4 16 4 17.42578125 5.13671875 C19.4458573 7.52772688 20.7669202 10.02395447 22.1875 12.8125 C22.71730469 13.82957031 23.24710938 14.84664062 23.79296875 15.89453125 C25.92321328 21.37525746 25.14660672 25.38027308 23.0625 30.75 C22.70285156 31.69359375 22.34320313 32.6371875 21.97265625 33.609375 C21 36 21 36 20 38 C19.34 38 18.68 38 18 38 C18.33 36.35 18.66 34.7 19 33 C18.34 33.66 17.68 34.32 17 35 C16.34 34.67 15.68 34.34 15 34 C15 32.35 15 30.7 15 29 C13.35 29 11.7 29 10 29 C10.11472656 28.02289063 10.22945312 27.04578125 10.34765625 26.0390625 C10.34896235 20.8486094 7.37995207 17.43207156 4.4375 13.375 C-1.04211141 5.79498131 -1.04211141 5.79498131 -0.83984375 1.9765625 C-0.56269531 1.32429688 -0.28554688 0.67203125 0 0 Z " fill="#E57925" transform="translate(34,48)"/>
<path d="M0 0 C0.33 0.66 0.66 1.32 1 2 C3.97 2 6.94 2 10 2 C10 2.66 10 3.32 10 4 C10.928125 4.0825 11.85625 4.165 12.8125 4.25 C16.51871956 5.12205166 16.98866719 5.93511191 19 9 C19.99 9.33 20.98 9.66 22 10 C22 10.66 22 11.32 22 12 C21.01 12 20.02 12 19 12 C19.33 13.32 19.66 14.64 20 16 C21.65 16.33 23.3 16.66 25 17 C25.33 16.34 25.66 15.68 26 15 C25.34 14.67 24.68 14.34 24 14 C24.66 13.67 25.32 13.34 26 13 C26.66 13.66 27.32 14.32 28 15 C27.625 17.125 27.625 17.125 27 19 C21.54431946 19.16619954 16.54692245 18.54370668 11.1875 17.5625 C5.41001345 16.54058756 -0.28630301 15.65000353 -6.15234375 15.30859375 C-8 15 -8 15 -11 13 C-11.1875 9.375 -11.1875 9.375 -11 6 C-10.67 6.66 -10.34 7.32 -10 8 C-9.01 7.34 -8.02 6.68 -7 6 C-8.32 5.67 -9.64 5.34 -11 5 C-11 4.34 -11 3.68 -11 3 C-8.59454362 1.79727181 -7.05003047 1.89928528 -4.375 1.9375 C-3.14910156 1.95103516 -3.14910156 1.95103516 -1.8984375 1.96484375 C-0.95871094 1.98224609 -0.95871094 1.98224609 0 2 C0 1.34 0 0.68 0 0 Z " fill="#ED7F29" transform="translate(102,169)"/>
<path d="M0 0 C0.66 0 1.32 0 2 0 C2.02689216 1.47906892 2.04634621 2.95827483 2.0625 4.4375 C2.07410156 5.26121094 2.08570313 6.08492187 2.09765625 6.93359375 C2 9 2 9 1 10 C0.52547958 12.9982437 0.09531003 15.99257338 -0.3125 19 C-2.00744255 30.90956787 -4.63879795 42.45240363 -8 54 C-7.34 54.33 -6.68 54.66 -6 55 C-5.64984951 56.66321482 -5.31802943 58.33034549 -5 60 C-4.34 60.99 -3.68 61.98 -3 63 C-2.67 62.01 -2.34 61.02 -2 60 C-1.34 60 -0.68 60 0 60 C0 59.01 0 58.02 0 57 C0.66 57 1.32 57 2 57 C2.495 54.03 2.495 54.03 3 51 C2.01 50.67 1.02 50.34 0 50 C0.33 48.68 0.66 47.36 1 46 C1 46.99 1 47.98 1 49 C1.99 49 2.98 49 4 49 C4 48.34 4 47.68 4 47 C4.99 47 5.98 47 7 47 C7 46.34 7 45.68 7 45 C7.66 45 8.32 45 9 45 C8.86078125 46.73830078 8.86078125 46.73830078 8.71875 48.51171875 C8.71875 53.59465514 10.78016059 56.66620359 13.5 60.8125 C16.93343743 66.47087352 19.24437254 70.95882131 18.6484375 77.78125 C17.60543126 81.35009062 15.98088999 82.83885476 13 85 C13.33 84.21625 13.66 83.4325 14 82.625 C15.42339964 77.46517631 16.27391528 71.96877649 14.1015625 66.90625 C13.10922398 65.24531461 12.0579259 63.61994904 11 62 C11 61.01 11 60.02 11 59 C10.34 59 9.68 59 9 59 C9.33 59.99 9.66 60.98 10 62 C9.01 62 8.02 62 7 62 C7.99 62.99 8.98 63.98 10 65 C9.67 65.66 9.34 66.32 9 67 C10.65 67.33 12.3 67.66 14 68 C14 68.66 14 69.32 14 70 C13.37351563 69.855625 12.74703125 69.71125 12.1015625 69.5625 C10.87566406 69.2840625 10.87566406 69.2840625 9.625 69 C8.81289062 68.814375 8.00078125 68.62875 7.1640625 68.4375 C5.04125049 67.93394761 5.04125049 67.93394761 3 68 C2.01 68 1.02 68 0 68 C-0.33 69.32 -0.66 70.64 -1 72 C-3.97 71.01 -6.94 70.02 -10 69 C-10 68.34 -10 67.68 -10 67 C-7.69 67.33 -5.38 67.66 -3 68 C-3.42152344 67.35933594 -3.84304687 66.71867187 -4.27734375 66.05859375 C-5.09912109 64.76115234 -5.09912109 64.76115234 -5.9375 63.4375 C-6.48277344 62.59058594 -7.02804688 61.74367187 -7.58984375 60.87109375 C-11.2043094 53.51200164 -9.43662444 47.71944859 -7.3125 40.25 C-3.74426058 26.98523137 -1.76415183 13.60645645 0 0 Z " fill="#D56F24" transform="translate(212,180)"/>
<path d="M0 0 C1.02092239 -0.00442612 1.02092239 -0.00442612 2.06246948 -0.00894165 C13.20210466 -0.01995488 23.28733987 1.23274869 34 4.3125 C36.32954501 4.89048851 38.6627082 5.45418157 41 6 C42.01449219 6.2371875 43.02898437 6.474375 44.07421875 6.71875 C48.35753188 7.58799379 52.64228067 8.02723169 57 8.3125 C57 8.6425 57 8.9725 57 9.3125 C48.39357825 9.60406008 40.64607151 9.7031226 32.3515625 7.046875 C29.24300075 6.07609492 26.2300004 5.67138893 23 5.3125 C23 4.6525 23 3.9925 23 3.3125 C17.78557724 3.2630814 12.57129066 3.22677169 7.35668945 3.20263672 C5.58257676 3.19257589 3.80848065 3.17892578 2.03442383 3.16162109 C-0.51485284 3.13737622 -3.06391037 3.12601782 -5.61328125 3.1171875 C-6.40712723 3.10686493 -7.20097321 3.09654236 -8.01887512 3.08590698 C-11.88223043 3.0851189 -13.70839446 3.11809631 -17 5.3125 C-17.47114738 8.0552508 -17.17805784 10.50808897 -17 13.3125 C-15.14966456 15.16283544 -12.11076457 14.53093929 -9.62890625 14.59375 C-7.68467773 14.64982422 -7.68467773 14.64982422 -5.70117188 14.70703125 C-4.32162845 14.74272745 -2.94207078 14.77787725 -1.5625 14.8125 C1.12391794 14.88009476 3.8099131 14.95385384 6.49609375 15.03125 C7.69419678 15.06154297 8.8922998 15.09183594 10.12670898 15.12304688 C13 15.3125 13 15.3125 15 16.3125 C16.45528516 16.46904462 17.91468783 16.58825548 19.375 16.6875 C34.76825843 18.08075843 34.76825843 18.08075843 38 21.3125 C39.85287502 21.38476502 41.70833878 21.3963122 43.5625 21.375 C45.08037109 21.36146484 45.08037109 21.36146484 46.62890625 21.34765625 C47.80259766 21.33025391 47.80259766 21.33025391 49 21.3125 C49 21.9725 49 22.6325 49 23.3125 C51.12563103 23.19873383 53.2505261 23.07114369 55.375 22.9375 C57.15003906 22.83308594 57.15003906 22.83308594 58.9609375 22.7265625 C62.10562319 22.61032654 62.10562319 22.61032654 64 20.3125 C64.16677282 16.72906024 64.16677282 16.72906024 64 13.3125 C62.68 12.6525 61.36 11.9925 60 11.3125 C60 10.6525 60 9.9925 60 9.3125 C62.62434747 9.67447896 63.82013689 10.13906057 65.75 12 C67.421416 15.0921196 67.56679739 16.84086597 67 20.3125 C64.34782378 23.71009375 62.8781485 25.15595666 58.58300781 25.92163086 C48.58964934 25.71097298 39.43973011 24.26946794 29.75 21.875 C16.17913949 18.59209193 3.55029917 17.10554969 -10.43359375 17.5703125 C-14.225237 17.29621781 -16.02177943 16.61714171 -19 14.3125 C-20.42662219 11.45925563 -20.31033868 9.47795451 -20 6.3125 C-14.83475995 -1.43536008 -8.58006952 0.03223052 0 0 Z " fill="#C16725" transform="translate(110,103.6875)"/>
<path d="M0 0 C0.66 0 1.32 0 2 0 C2 0.66 2 1.32 2 2 C2.99 2.33 3.98 2.66 5 3 C3.02 3.99 3.02 3.99 1 5 C2.65 4.67 4.3 4.34 6 4 C5.21085079 5.60540659 4.41858235 7.20928016 3.625 8.8125 C3.18414062 9.70582031 2.74328125 10.59914063 2.2890625 11.51953125 C1 14 1 14 -1 17 C-0.76580822 19.07510461 -0.76580822 19.07510461 -0.0625 21.25 C1.05426063 25.59611938 0.92896397 28.63386933 0 33 C-0.99 32.67 -1.98 32.34 -3 32 C-2.34 30.68 -1.68 29.36 -1 28 C-1.66 27.67 -2.32 27.34 -3 27 C-3.40729228 24.67843403 -3.74438677 22.3431213 -4 20 C-4.66 20 -5.32 20 -6 20 C-6.804375 20.804375 -7.60875 21.60875 -8.4375 22.4375 C-11 25 -11 25 -14 26 C-16.45217353 21.56226086 -16.96177693 17.98921784 -16 13 C-14.25423685 8.76652437 -12.26859342 5.23306523 -9 2 C-5.80443713 1.09998388 -3.21844108 1.27749282 0 2 C0 1.34 0 0.68 0 0 Z " fill="#E47924" transform="translate(217,52)"/>
<path d="M0 0 C0.66 0 1.32 0 2 0 C2.99 1.485 2.99 1.485 4 3 C7.06663678 4.16908086 7.06663678 4.16908086 10.5625 5.0625 C12.72445401 5.65212382 14.87582147 6.28616041 17 7 C17.33 7.66 17.66 8.32 18 9 C16.24970238 8.68917128 14.49977306 8.37626821 12.75 8.0625 C11.77546875 7.88847656 10.8009375 7.71445312 9.796875 7.53515625 C8.14020758 7.21816821 6.48845022 6.86768658 4.85546875 6.4453125 C-1.45429304 4.93096967 -8.00312073 6.36971671 -14.265625 7.46484375 C-23.59232719 8.8014109 -32.90495727 9.15808498 -42.31640625 9.16796875 C-44.02122414 9.17296135 -44.02122414 9.17296135 -45.76048279 9.17805481 C-48.15127157 9.18308374 -50.54206727 9.18546439 -52.93286133 9.18530273 C-56.52893079 9.18747968 -60.12468809 9.20565318 -63.72070312 9.22460938 C-78.0368572 9.25931925 -92.10866498 8.85083115 -106.24829102 6.44799805 C-114.23392741 5.14787891 -121.23862408 6.51677549 -129 8.5 C-135.86018196 10.25294705 -141.90224596 11.29089156 -149 11 C-145.36586197 8.57724131 -141.97085887 8.15657805 -137.75 7.5 C-133.52268998 6.8286471 -129.4530579 6.13345142 -125.33984375 4.921875 C-117.69590923 2.81197027 -109.51184901 3.77092387 -101.7164917 4.7015686 C-87.26460599 6.39602747 -72.78377347 6.44978435 -58.25 6.625 C-55.59504076 6.66328488 -52.94009253 6.70234223 -50.28515625 6.7421875 C-43.85687043 6.83701191 -37.42851532 6.92237213 -31 7 C-30.67 6.01 -30.34 5.02 -30 4 C-30 4.66 -30 5.32 -30 6 C-28.74445313 5.86722656 -27.48890625 5.73445313 -26.1953125 5.59765625 C-17.79886636 4.7109969 -9.40262891 3.82648809 -1 3 C-0.67 2.01 -0.34 1.02 0 0 Z " fill="#CF7431" transform="translate(188,256)"/>
<path d="M0 0 C13.87985043 1.93539671 27.51446817 2.38616357 41.51199341 2.2883606 C42.62164459 2.2857019 43.73129578 2.28304321 44.87457275 2.28030396 C59.43124462 2.23943761 73.67060336 1.81386764 88.07058716 -0.4303894 C96.21771931 -1.65093355 104.33513014 -1.92368059 112.13699341 0.9133606 C112.13699341 1.2433606 112.13699341 1.5733606 112.13699341 1.9133606 C109.82699341 1.9133606 107.51699341 1.9133606 105.13699341 1.9133606 C104.80699341 2.5733606 104.47699341 3.2333606 104.13699341 3.9133606 C104.13699341 3.2533606 104.13699341 2.5933606 104.13699341 1.9133606 C103.51050903 1.99714966 102.88402466 2.08093872 102.23855591 2.16726685 C101.01265747 2.32002075 101.01265747 2.32002075 99.76199341 2.4758606 C98.94988403 2.58027466 98.13777466 2.68468872 97.30105591 2.79226685 C95.13699341 2.9133606 95.13699341 2.9133606 93.13699341 1.9133606 C90.61860734 1.97689786 88.14607885 2.10076542 85.63699341 2.2883606 C84.94734497 2.33218872 84.25769653 2.37601685 83.54714966 2.4211731 C79.71558349 2.6492318 79.71558349 2.6492318 76.13699341 3.9133606 C69.46160025 4.84506096 62.89788181 5.08704293 56.16433716 5.1164856 C55.12418961 5.12218567 54.08404205 5.12788574 53.01237488 5.13375854 C50.81295777 5.14316544 48.61352684 5.14972528 46.41409302 5.15359497 C43.13590936 5.163181 39.85838654 5.19419594 36.58035278 5.2258606 C23.61047644 5.28925102 11.07080417 4.4468837 -1.76803589 2.59744263 C-11.61139932 1.19466675 -20.55989923 1.34949656 -30.14425659 4.2571106 C-33.13353495 4.97866054 -35.79909 5.02149883 -38.86300659 4.9133606 C-27.44585084 -2.69807657 -12.92785947 -1.84063123 0 0 Z " fill="#D66E23" transform="translate(88.86300659179688,245.08663940429688)"/>
<path d="M0 0 C11.31766648 3.32734541 20.92712739 4.10570403 32.5625 2.4375 C32.2325 3.0975 31.9025 3.7575 31.5625 4.4375 C29.05078125 5.0703125 29.05078125 5.0703125 25.875 5.5625 C24.83988281 5.73007812 23.80476563 5.89765625 22.73828125 6.0703125 C16.7298198 6.76501776 12.34714979 6.1330008 6.5625 4.4375 C3.89841134 4.0114331 1.24730797 3.72011137 -1.4375 3.4375 C-1.4375 2.7775 -1.4375 2.1175 -1.4375 1.4375 C-2.79875 1.2209375 -2.79875 1.2209375 -4.1875 1 C-7.4375 0.4375 -7.4375 0.4375 -9.265625 -0.08203125 C-12.0180314 -0.69092691 -14.61967977 -0.7702327 -17.4375 -0.8125 C-18.46875 -0.83828125 -19.5 -0.8640625 -20.5625 -0.890625 C-23.8180122 -0.51907198 -25.12872976 0.15010726 -27.4375 2.4375 C-29.26467314 7.91901942 -28.77252713 12.28374479 -26.43115234 17.51953125 C-25.37490457 19.55832303 -24.18362161 21.41034567 -22.88671875 23.3046875 C-22.43619141 23.96339844 -21.98566406 24.62210938 -21.52148438 25.30078125 C-20.58773013 26.64590974 -19.63696009 27.97937869 -18.66992188 29.30078125 C-16.83268811 32.03663298 -15.40879643 34.16383464 -15.48461914 37.52832031 C-15.99567731 39.89213078 -16.69124492 42.13717156 -17.4375 44.4375 C-17.93810774 46.3933706 -18.4284708 48.3518835 -18.91015625 50.3125 C-19.43837946 52.35461356 -19.96835035 54.3962758 -20.5 56.4375 C-20.76876953 57.48550781 -21.03753906 58.53351563 -21.31445312 59.61328125 C-21.57291016 60.60714844 -21.83136719 61.60101563 -22.09765625 62.625 C-22.33105713 63.52605469 -22.56445801 64.42710938 -22.80493164 65.35546875 C-23.4375 67.4375 -23.4375 67.4375 -24.4375 68.4375 C-24.83693176 70.95945967 -25.18829848 73.46713656 -25.5 76 C-25.59087891 76.71091797 -25.68175781 77.42183594 -25.77539062 78.15429688 C-25.99989503 79.91488403 -26.21918397 81.67613478 -26.4375 83.4375 C-25.4475 83.7675 -24.4575 84.0975 -23.4375 84.4375 C-24.4375 87.4375 -24.4375 87.4375 -26.4375 88.4375 C-27.15909424 90.08113134 -27.83101421 91.74800386 -28.4375 93.4375 C-28.7675 93.4375 -29.0975 93.4375 -29.4375 93.4375 C-28.88868059 76.86315392 -25.22095242 61.02110172 -20.28051758 45.23999023 C-20.02681396 44.40798096 -19.77311035 43.57597168 -19.51171875 42.71875 C-19.28057373 41.98720703 -19.04942871 41.25566406 -18.8112793 40.50195312 C-18.06633742 36.38749948 -19.76535797 33.62762075 -21.90625 30.20703125 C-22.39480469 29.40330078 -22.88335937 28.59957031 -23.38671875 27.77148438 C-24.4118714 26.10464297 -25.44560583 24.44304603 -26.48828125 22.78710938 C-29.71528467 17.43573299 -31.69279051 12.78079322 -31.4375 6.4375 C-30.19858285 2.57499359 -28.84070952 0.81120639 -25.875 -1.9375 C-17.27272768 -6.00402873 -8.5908706 -2.68024403 0 0 Z " fill="#C16724" transform="translate(60.4375,34.5625)"/>
<path d="M0 0 C1.65 0.33 3.3 0.66 5 1 C4.47573488 5.56027435 2.66262095 8.1165054 -0.0625 11.75 C-3.18202973 16.31189293 -5.02854982 19.38736847 -4.46484375 24.9453125 C-3.86738125 27.58619717 -2.98058125 30.07557673 -1.93359375 32.5703125 C1.16140388 40.6250762 3.70722365 49.3365103 3 58 C2.67 58 2.34 58 2 58 C1.79842285 57.21351074 1.5968457 56.42702148 1.38916016 55.61669922 C0.46998547 52.03556084 -0.45247473 48.45527664 -1.375 44.875 C-1.69210938 43.6375 -2.00921875 42.4 -2.3359375 41.125 C-2.6453125 39.92617187 -2.9546875 38.72734375 -3.2734375 37.4921875 C-3.69761963 35.84259033 -3.69761963 35.84259033 -4.13037109 34.15966797 C-4.71784283 32.02517635 -5.37694589 29.90931634 -6.10009766 27.81689453 C-7.36196637 23.86696473 -7.31094741 20.87071203 -6 17 C-3.55176509 12.51071029 -0.84264075 8.24777297 2 4 C0.90042969 4.3609375 -0.19914062 4.721875 -1.33203125 5.09375 C-2.82526328 5.56331982 -4.31876802 6.032023 -5.8125 6.5 C-6.89047852 6.85771484 -6.89047852 6.85771484 -7.99023438 7.22265625 C-17.72361124 10.2241381 -27.14608196 9.03904908 -37.0625 7.5625 C-47.04026802 6.16020584 -56.93476896 5.36440911 -67 5 C-67.33 4.34 -67.66 3.68 -68 3 C-63.84038736 1.79237052 -60.38477978 2.20301452 -56.18359375 2.84375 C-53.88409627 3.00829365 -52.21003875 2.58031652 -50 2 C-49.67 2.33 -49.34 2.66 -49 3 C-46.67182036 3.36760731 -44.3381615 3.70241581 -42 4 C-42 3.34 -42 2.68 -42 2 C-41.34 2 -40.68 2 -40 2 C-39.67 2.66 -39.34 3.32 -39 4 C-27.91931854 6.74475596 -17.19286128 7.07217738 -6.3125 3.65625 C-4 3 -4 3 -1 3 C-0.67 2.01 -0.34 1.02 0 0 Z " fill="#C36622" transform="translate(206,47)"/>
<path d="M0 0 C0.66 0 1.32 0 2 0 C1.92894043 1.06508789 1.85788086 2.13017578 1.78466797 3.22753906 C-0.23653406 34.22990832 -1.13440227 65.0910815 7.1875 95.390625 C7.95318968 98.79205416 7.97521318 99.85822277 7 103 C3.56185058 95.02974453 2 86.68675054 2 78 C1.34 78 0.68 78 0 78 C-2.4501886 57.61347933 -3.55465156 37.49748288 -2 17 C-2.639375 16.71125 -3.27875 16.4225 -3.9375 16.125 C-6 15 -6 15 -7 13 C-7.99 12.34 -8.98 11.68 -10 11 C-9.34 10.67 -8.68 10.34 -8 10 C-5.64018187 10.93578995 -3.30368736 11.93347808 -1 13 C-0.67 8.71 -0.34 4.42 0 0 Z " fill="#C36826" transform="translate(47,119)"/>
<path d="M0 0 C5.27651892 0.55664375 10.01360332 1.52409777 15.125 3 C24.83213393 5.59939513 34.77345865 5.48804324 44.75439453 5.40820312 C46.00591309 5.41658203 47.25743164 5.42496094 48.546875 5.43359375 C49.66932617 5.42384521 50.79177734 5.41409668 51.94824219 5.40405273 C55.97716928 6.19082162 57.46350455 7.8444858 60 11 C60.73155821 14.9016438 60.34969675 16.43798736 58.25 19.8125 C53.12545785 24.79469376 45.07085708 23.18403424 38.375 23.1875 C37.12203125 23.19974609 35.8690625 23.21199219 34.578125 23.22460938 C33.38445312 23.22654297 32.19078125 23.22847656 30.9609375 23.23046875 C29.86571777 23.23457764 28.77049805 23.23868652 27.64208984 23.24291992 C25 23 25 23 23 21 C33.89 20.67 44.78 20.34 56 20 C56 18.02 56 16.04 56 14 C56.32483418 12.66457061 56.6550855 11.33038449 57 10 C55.25697291 8.25697291 52.82582197 8.80833095 50.453125 8.75390625 C49.29683594 8.72103516 48.14054687 8.68816406 46.94921875 8.65429688 C44.53001439 8.59426382 42.11074289 8.53686359 39.69140625 8.48242188 C28.42510368 8.15397631 17.61901036 6.58529183 6.6875 3.875 C5.93533203 3.69324219 5.18316406 3.51148438 4.40820312 3.32421875 C2.60430187 2.88760571 0.80196036 2.44455549 -1 2 C-0.67 1.34 -0.34 0.68 0 0 Z " fill="#CC661E" transform="translate(126,139)"/>
<path d="M0 0 C0.66 0 1.32 0 2 0 C6.3137309 31.87135157 6.06700015 63.1372315 0 94.75 C-0.13142395 95.44006134 -0.2628479 96.13012268 -0.39825439 96.84109497 C-2.63419465 108.45129198 -2.63419465 108.45129198 -5 112 C-3.91675752 102.53118631 -2.57734691 93.17758525 -0.78125 83.81640625 C1.4549522 70.78771093 2.34058845 57.95016208 2.25 44.75 C2.24822754 43.99562653 2.24645508 43.24125305 2.24462891 42.46401978 C2.21467924 31.55355798 1.75003207 20.79045337 0.4375 9.94921875 C0.06471714 6.58418773 -0.08596614 3.37954394 0 0 Z " fill="#BF6524" transform="translate(226,113)"/>
<path d="M0 0 C2.67175308 3.70598008 3.57983848 7.17520888 3.4375 11.765625 C2.56565697 16.21825192 0.23909271 20.09758128 -2 24 C-3.22884069 20.31347792 -2.26164911 19.33645174 -0.71484375 15.96484375 C0.55523854 12.47385254 0.35829297 9.70236066 0 6 C-1.72967713 2.25452396 -1.72967713 2.25452396 -5 0 C-12.32738458 -0.80102233 -18.27088462 0.45664544 -25.12890625 2.98046875 C-28.4365837 4.15503176 -31.72361188 4.92071969 -35.16015625 5.60546875 C-37.21781304 6.01133356 -37.21781304 6.01133356 -40 7 C-42.66666667 7 -45.33333333 7 -48 7 C-48.99 7.33 -49.98 7.66 -51 8 C-51.33 7.34 -51.66 6.68 -52 6 C-54.52733235 5.34444881 -54.52733235 5.34444881 -57 5 C-57 4.67 -57 4.34 -57 4 C-56.07445312 4.08121094 -55.14890625 4.16242187 -54.1953125 4.24609375 C-43.14273523 4.87558201 -33.57279602 2.65433961 -23.00048828 -0.51000977 C-14.46722942 -3.0451972 -8.16754555 -4.71204551 0 0 Z " fill="#BF6422" transform="translate(227,34)"/>
<path d="M0 0 C0.66 0 1.32 0 2 0 C3.97387813 4.76052962 4.0070238 7.96488101 3 13 C4.98 13 6.96 13 9 13 C9 13.99 9 14.98 9 16 C7.02 16.99 7.02 16.99 5 18 C4.67 32.19 4.34 46.38 4 61 C3.01 61.495 3.01 61.495 2 62 C2.01047363 61.12077881 2.02094727 60.24155762 2.03173828 59.33569336 C2.20879294 42.14234141 2.01856423 25.23936421 0.1875 8.11962891 C-0.05243082 5.40728592 -0.07124703 2.72074606 0 0 Z " fill="#C76A26" transform="translate(211,117)"/>
<path d="M0 0 C0.33 0.66 0.66 1.32 1 2 C-2.63 2.33 -6.26 2.66 -10 3 C-10 3.66 -10 4.32 -10 5 C-8.35 5 -6.7 5 -5 5 C-5.99 6.485 -5.99 6.485 -7 8 C-7.66 8 -8.32 8 -9 8 C-9 9.65 -9 11.3 -9 13 C-8.34 13 -7.68 13 -7 13 C-7 13.66 -7 14.32 -7 15 C-5.72125 14.938125 -4.4425 14.87625 -3.125 14.8125 C5.01792269 14.77719831 13.01894617 16.53941499 21 18 C21 18.66 21 19.32 21 20 C19.98421875 19.86722656 18.9684375 19.73445313 17.921875 19.59765625 C16.53132744 19.41866817 15.14069629 19.24032879 13.75 19.0625 C12.66477051 18.92328125 12.66477051 18.92328125 11.55761719 18.78125 C6.19748659 18.10975592 0.84808907 17.64514464 -4.546875 17.34375 C-7.11441671 16.98396708 -8.80110919 16.3546738 -11 15 C-13.299969 11.7800434 -13.40387364 8.87718692 -13 5 C-9.86227375 -0.52837482 -5.92402416 -0.11177404 0 0 Z " fill="#D6722B" transform="translate(101,169)"/>
<path d="M0 0 C0.66 0 1.32 0 2 0 C2.66 10.56 3.32 21.12 4 32 C4.66 31.67 5.32 31.34 6 31 C6 31.99 6 32.98 6 34 C5.34 34 4.68 34 4 34 C4.33 39.61 4.66 45.22 5 51 C4.34 51 3.68 51 3 51 C0.69174424 33.94579965 -0.1571744 17.2018654 0 0 Z " fill="#C76A26" transform="translate(29,146)"/>
<path d="M0 0 C1.36176922 1.64351457 2.68962066 3.31522656 4 5 C4.5775 5.721875 5.155 6.44375 5.75 7.1875 C9.02363434 14.55317726 6.60547152 22.5634872 4.25 29.875 C1.11801904 40.13804621 -1.07389792 50.45175863 -3 61 C-3.66 61 -4.32 61 -5 61 C-4.45589783 53.86288723 -3.30711635 47.03068766 -1.6875 40.0625 C-1.46747314 39.09828125 -1.24744629 38.1340625 -1.02075195 37.140625 C0.35920986 31.25650367 2.08174597 25.67776654 4.265625 20.0390625 C5.33477052 17.07047761 5.60933698 15.11438902 5 12 C3.80087152 9.60589228 2.5075966 7.32471787 1.09375 5.05078125 C0 3 0 3 0 0 Z " fill="#C16624" transform="translate(53,55)"/>
<path d="M0 0 C0 0.33 0 0.66 0 1 C-2.31 1 -4.62 1 -7 1 C-7.33 1.66 -7.66 2.32 -8 3 C-8 2.34 -8 1.68 -8 1 C-8.62648437 1.08378906 -9.25296875 1.16757813 -9.8984375 1.25390625 C-10.71570313 1.35574219 -11.53296875 1.45757812 -12.375 1.5625 C-13.18710938 1.66691406 -13.99921875 1.77132812 -14.8359375 1.87890625 C-17 2 -17 2 -19 1 C-21.31531639 1.09073933 -23.6282012 1.24759827 -25.9375 1.4375 C-32.30469082 1.92882169 -38.61122251 2.11954054 -45 2 C-45 1.67 -45 1.34 -45 1 C-40.91806133 0.48816954 -36.83427904 -0.00722286 -32.75 -0.5 C-31.04070312 -0.71462891 -31.04070312 -0.71462891 -29.296875 -0.93359375 C-9.17113971 -3.33495989 -9.17113971 -3.33495989 0 0 Z " fill="#D5742E" transform="translate(201,246)"/>
<path d="M0 0 C5.27651892 0.55664375 10.01360332 1.52409777 15.125 3 C27.99341809 6.39606376 41.77819094 5.84926488 55 6 C55 6.33 55 6.66 55 7 C17.54823897 8.03194763 17.54823897 8.03194763 -1 2 C-0.67 1.34 -0.34 0.68 0 0 Z " fill="#C36E30" transform="translate(126,139)"/>
<path d="M0 0 C0.66 0 1.32 0 2 0 C1.9071875 1.15886719 1.814375 2.31773437 1.71875 3.51171875 C1.71875 8.59465514 3.78016059 11.66620359 6.5 15.8125 C9.93343743 21.47087352 12.24437254 25.95882131 11.6484375 32.78125 C10.60543126 36.35009062 8.98088999 37.83885476 6 40 C6.33 39.21625 6.66 38.4325 7 37.625 C9.03729921 30.23979036 8.84864755 24.92746833 5.125 18.125 C4.09115854 16.41191971 3.05016724 14.70312096 2 13 C0.19016613 9.91613834 -0.23009468 7.8232192 -0.125 4.25 C-0.10695312 3.45078125 -0.08890625 2.6515625 -0.0703125 1.828125 C-0.04710937 1.22484375 -0.02390625 0.6215625 0 0 Z " fill="#C26A29" transform="translate(219,225)"/>
<path d="M0 0 C0 0.66 0 1.32 0 2 C-1.2065625 2.4640625 -1.2065625 2.4640625 -2.4375 2.9375 C-4.89080405 3.76335345 -4.89080405 3.76335345 -6 5 C-6 7.97 -6 10.94 -6 14 C4.23 14.33 14.46 14.66 25 15 C25.495 15.99 25.495 15.99 26 17 C21.65761978 16.95579887 17.31663253 16.88591932 12.97509766 16.79248047 C11.49897804 16.76429912 10.02270831 16.74307034 8.54638672 16.72900391 C6.42076943 16.70753302 4.29695121 16.66086957 2.171875 16.609375 C0.2552002 16.5779541 0.2552002 16.5779541 -1.70019531 16.54589844 C-5.52501892 15.91314425 -6.73928808 15.10100115 -9 12 C-9.5625 8.5625 -9.5625 8.5625 -9 5 C-5.96734962 1.04070645 -5.08477731 0 0 0 Z " fill="#BF6E35" transform="translate(87,137)"/>
<path d="M0 0 C4.37900876 0.23631298 8.75710456 0.4847898 13.13476562 0.74462891 C14.62448268 0.83132343 16.1143982 0.91467424 17.60449219 0.99462891 C19.74474947 1.11004891 21.88400792 1.23742506 24.0234375 1.3671875 C25.31169434 1.44050293 26.59995117 1.51381836 27.92724609 1.58935547 C31 2 31 2 33 4 C22.44 3.67 11.88 3.34 1 3 C0.67 2.01 0.34 1.02 0 0 Z " fill="#C06624" transform="translate(136,34)"/>
<path d="M0 0 C-3.42882941 1.14294314 -6.24082838 1.20964472 -9.85546875 1.31640625 C-10.51710526 1.33718735 -11.17874176 1.35796844 -11.86042786 1.37937927 C-13.96934852 1.44464727 -16.07839135 1.50365344 -18.1875 1.5625 C-19.61915315 1.60570689 -21.05079404 1.64932188 -22.48242188 1.69335938 C-25.98815154 1.80030506 -29.49401786 1.90163641 -33 2 C-33 1.34 -33 0.68 -33 0 C-26.56670572 -0.76260935 -20.15535909 -1.32413713 -13.6875 -1.6875 C-12.80771484 -1.74744141 -11.92792969 -1.80738281 -11.02148438 -1.86914062 C-10.17263672 -1.91619141 -9.32378906 -1.96324219 -8.44921875 -2.01171875 C-7.68955811 -2.05772217 -6.92989746 -2.10372559 -6.1472168 -2.15112305 C-3.67832207 -1.97736002 -2.12447896 -1.23287855 0 0 Z " fill="#BA6728" transform="translate(127,36)"/>
<path d="M0 0 C0.66 0 1.32 0 2 0 C2.66 0.99 3.32 1.98 4 3 C7.06663678 4.16908086 7.06663678 4.16908086 10.5625 5.0625 C12.72445401 5.65212382 14.87582147 6.28616041 17 7 C17.33 7.66 17.66 8.32 18 9 C16.24970238 8.68917128 14.49977306 8.37626821 12.75 8.0625 C11.77546875 7.88847656 10.8009375 7.71445312 9.796875 7.53515625 C7 7 7 7 5.09375 6.46875 C1.99954776 5.77601815 -1.08890736 5.64238563 -4.25 5.4375 C-5.51328125 5.35371094 -6.7765625 5.26992188 -8.078125 5.18359375 C-9.04234375 5.12300781 -10.0065625 5.06242187 -11 5 C-11 4.67 -11 4.34 -11 4 C-7.7 3.67 -4.4 3.34 -1 3 C-0.67 2.01 -0.34 1.02 0 0 Z " fill="#D6732A" transform="translate(188,256)"/>
<path d="M0 0 C2.37575856 0.46195305 4.72681217 0.92549423 7.0625 1.5625 C9.31924716 2.14684058 9.31924716 2.14684058 13 2 C13 4 13 4 11.88671875 5.67578125 C10 7 10 7 7.08203125 6.85546875 C5.46361328 6.52482422 5.46361328 6.52482422 3.8125 6.1875 C2.72582031 5.97480469 1.63914063 5.76210937 0.51953125 5.54296875 C-0.31191406 5.36378906 -1.14335937 5.18460937 -2 5 C-1.34 3.35 -0.68 1.7 0 0 Z " fill="#E17725" transform="translate(139,118)"/>
<path d="M0 0 C2.62434747 0.36197896 3.82013689 0.82656057 5.75 2.6875 C7.421416 5.7796196 7.56679739 7.52836597 7 11 C5.01037975 13.64252476 3.44586189 15.69682349 0.08935547 16.40063477 C-2.06522818 16.49152731 -4.15985028 16.43754221 -6.3125 16.3125 C-7.05306641 16.28994141 -7.79363281 16.26738281 -8.55664062 16.24414062 C-10.37197357 16.1855815 -12.18625681 16.09590886 -14 16 C-14 15.67 -14 15.34 -14 15 C-12.86820313 14.87882812 -11.73640625 14.75765625 -10.5703125 14.6328125 C-9.08848969 14.46399724 -7.60672158 14.29470145 -6.125 14.125 C-5.37863281 14.04636719 -4.63226563 13.96773437 -3.86328125 13.88671875 C0.52555407 13.4919231 0.52555407 13.4919231 4 11 C4.16677282 7.41656024 4.16677282 7.41656024 4 4 C2.68 3.34 1.36 2.68 0 2 C0 1.34 0 0.68 0 0 Z " fill="#B96B30" transform="translate(170,113)"/>
<path d="M0 0 C1.48011371 0.30798326 2.95907325 0.621518 4.4375 0.9375 C5.26121094 1.11152344 6.08492187 1.28554688 6.93359375 1.46484375 C9 2 9 2 10 3 C12.67058851 3.14115161 15.32432238 3.04247107 18 3 C17.67 2.01 17.34 1.02 17 0 C17.66 0 18.32 0 19 0 C19.33 0.99 19.66 1.98 20 3 C18.68 4.32 17.36 5.64 16 7 C11.38 5.68 6.76 4.36 2 3 C2.33 4.32 2.66 5.64 3 7 C2.01 6.67 1.02 6.34 0 6 C-0.75 4.0625 -0.75 4.0625 -1 2 C-0.67 1.34 -0.34 0.68 0 0 Z " fill="#C7651C" transform="translate(50,48)"/>
<path d="M0 0 C0.33 0.99 0.66 1.98 1 3 C1.66 3 2.32 3 3 3 C2.38545304 6.99455527 0.29353263 9.74466336 -2 13 C-4.97 12.505 -4.97 12.505 -8 12 C-6.68 9.69 -5.36 7.38 -4 5 C-3.67 5.99 -3.34 6.98 -3 8 C-2.67 7.34 -2.34 6.68 -2 6 C-1.01 6 -0.02 6 1 6 C0.67 4.02 0.34 2.04 0 0 Z " fill="#E57A26" transform="translate(53,231)"/>
<path d="M0 0 C0.66 0 1.32 0 2 0 C2.226875 0.598125 2.45375 1.19625 2.6875 1.8125 C3.89660151 4.21911415 3.89660151 4.21911415 6.625 5.5625 C7.40875 6.036875 8.1925 6.51125 9 7 C9 7.99 9 8.98 9 10 C8.67 9.34 8.34 8.68 8 8 C7.34 8.66 6.68 9.32 6 10 C3.875 10.625 3.875 10.625 2 11 C0.80712589 7.12315913 0 4.08378077 0 0 Z " fill="#D26F21" transform="translate(209,106)"/>
<path d="M0 0 C1.98 0.66 3.96 1.32 6 2 C6 2.66 6 3.32 6 4 C6.99 4.33 7.98 4.66 9 5 C7.083412 5.02712153 5.1667127 5.04645097 3.25 5.0625 C1.64898437 5.07990234 1.64898437 5.07990234 0.015625 5.09765625 C-2.53368501 5.01510087 -4.57933591 4.74617558 -7 4 C-7 3.34 -7 2.68 -7 2 C-4.69 2 -2.38 2 0 2 C0 1.34 0 0.68 0 0 Z " fill="#E27622" transform="translate(129,186)"/>
<path d="M0 0 C2.50174793 4.83671267 3.61161129 8.49549843 3 14 C-1.42176871 23.21088435 -1.42176871 23.21088435 -5 25 C-5.33 24.01 -5.66 23.02 -6 22 C-5.401875 21.443125 -4.80375 20.88625 -4.1875 20.3125 C-0.93363715 16.87270213 0.96606461 14.52352033 1.07421875 9.66796875 C0.94660156 8.51941406 0.81898437 7.37085938 0.6875 6.1875 C0.56761719 5.02605469 0.44773437 3.86460937 0.32421875 2.66796875 C0.21722656 1.78753906 0.11023437 0.90710938 0 0 Z " fill="#C56825" transform="translate(55,222)"/>
<path d="M0 0 C-0.99 0 -1.98 0 -3 0 C-3 0.928125 -3 1.85625 -3 2.8125 C-3 4.875 -3 6.9375 -3 9 C-2.67 9.99 -2.34 10.98 -2 12 C-2.99 11.67 -3.98 11.34 -5 11 C-5.33 10.01 -5.66 9.02 -6 8 C-6.99 7.67 -7.98 7.34 -9 7 C-9 6.34 -9 5.68 -9 5 C-8.01 4.67 -7.02 4.34 -6 4 C-6.66 3.01 -7.32 2.02 -8 1 C-4.93251126 -0.86240388 -3.40254489 -1.2151946 0 0 Z " fill="#E0741F" transform="translate(155,147)"/>
<path d="M0 0 C0.33 0 0.66 0 1 0 C1.19780055 4.04123121 1.38141429 8.08298804 1.5625 12.125 C1.61857422 13.26710937 1.67464844 14.40921875 1.73242188 15.5859375 C1.78076172 16.69453125 1.82910156 17.803125 1.87890625 18.9453125 C1.9260376 19.96125488 1.97316895 20.97719727 2.02172852 22.02392578 C1.99913862 25.11798001 1.5873296 27.9664525 1 31 C0.67 31 0.34 31 0 31 C-1.35081164 20.58835953 -0.70902441 10.42811284 0 0 Z " fill="#CA5E17" transform="translate(45,136)"/>
<path d="M0 0 C3.63 0 7.26 0 11 0 C11.33 0.99 11.66 1.98 12 3 C10.54263913 3.19491452 9.08405407 3.38069358 7.625 3.5625 C6.81289062 3.66691406 6.00078125 3.77132812 5.1640625 3.87890625 C3 4 3 4 1 3 C0.67 3.66 0.34 4.32 0 5 C0 3.33333333 0 1.66666667 0 0 Z " fill="#DB6016" transform="translate(125,34)"/>
<path d="M0 0 C0.66 0 1.32 0 2 0 C2.18175781 0.84884766 2.18175781 0.84884766 2.3671875 1.71484375 C2.53476562 2.44832031 2.70234375 3.18179688 2.875 3.9375 C3.03742187 4.66839844 3.19984375 5.39929688 3.3671875 6.15234375 C3.82961523 8.20700294 3.82961523 8.20700294 6 9 C6 8.01 6 7.02 6 6 C6.66 6.33 7.32 6.66 8 7 C7.34 8.32 6.68 9.64 6 11 C5.34 11 4.68 11 4 11 C4 13.31 4 15.62 4 18 C3.67 18 3.34 18 3 18 C2.49490792 15.75113762 1.99610821 13.50086131 1.5 11.25 C1.2215625 9.99703125 0.943125 8.7440625 0.65625 7.453125 C0 4 0 4 0 0 Z " fill="#C66923" transform="translate(33,199)"/>
<path d="M0 0 C2.31 0.33 4.62 0.66 7 1 C7 1.66 7 2.32 7 3 C6.34 3 5.68 3 5 3 C4.67 3.99 4.34 4.98 4 6 C1.03 5.67 -1.94 5.34 -5 5 C-5 4.67 -5 4.34 -5 4 C-3.02 3.67 -1.04 3.34 1 3 C0.67 2.01 0.34 1.02 0 0 Z " fill="#E2802F" transform="translate(134,187)"/>
<path d="M0 0 C0.66 0 1.32 0 2 0 C2.76681614 9.73004484 2.76681614 9.73004484 0.88671875 12.84375 C-0.5 14.1875 -0.5 14.1875 -3 16 C-2.5359375 14.824375 -2.5359375 14.824375 -2.0625 13.625 C-0.73664193 9.10148422 -0.35188915 4.68568186 0 0 Z " fill="#D56B24" transform="translate(228,249)"/>
<path d="M0 0 C0.33 0.66 0.66 1.32 1 2 C1.99 2.66 2.98 3.32 4 4 C1.94766315 6.2477975 0.99332739 7.0022242 -2 8 C-2.66 7.01 -3.32 6.02 -4 5 C-3.67 4.34 -3.34 3.68 -3 3 C-3.66 2.34 -4.32 1.68 -5 1 C-3.35 0.67 -1.7 0.34 0 0 Z " fill="#DE6E1D" transform="translate(125,138)"/>
<path d="M0 0 C0 0.66 0 1.32 0 2 C-5.58384613 3.86128204 -11.31147144 3.13770571 -17 2 C-17 1.67 -17 1.34 -17 1 C-14.9168207 0.83141902 -12.83344956 0.66520745 -10.75 0.5 C-9.58984375 0.4071875 -8.4296875 0.314375 -7.234375 0.21875 C-4.82731342 0.05595356 -2.41256049 0 0 0 Z " fill="#CB6F2E" transform="translate(224,264)"/>
<path d="M0 0 C0.66 0 1.32 0 2 0 C1.67 1.32 1.34 2.64 1 4 C0.34 4 -0.32 4 -1 4 C-1.226875 4.721875 -1.45375 5.44375 -1.6875 6.1875 C-3.24831013 9.53209313 -5.3031287 11.51603959 -8 14 C-6.67997942 10.42705968 -5.10478612 7.36046508 -3 4.1875 C-2.484375 3.39730469 -1.96875 2.60710937 -1.4375 1.79296875 C-0.7259375 0.90544922 -0.7259375 0.90544922 0 0 Z " fill="#C56926" transform="translate(40,232)"/>
<path d="M0 0 C0.99 0.495 0.99 0.495 2 1 C2.63385922 3.04243528 3.01826504 5.09132519 3.4375 7.1875 C3.623125 7.785625 3.80875 8.38375 4 9 C4.66 9.33 5.32 9.66 6 10 C5.67 11.32 5.34 12.64 5 14 C4.34 14 3.68 14 3 14 C2.49307308 12.4188708 1.99473557 10.83498617 1.5 9.25 C1.2215625 8.36828125 0.943125 7.4865625 0.65625 6.578125 C0 4 0 4 0 0 Z " fill="#C46824" transform="translate(37,217)"/>
<path d="M0 0 C0.33 0.99 0.66 1.98 1 3 C1.99 3 2.98 3 4 3 C4 2.34 4 1.68 4 1 C4.99 1 5.98 1 7 1 C7.33 3.97 7.66 6.94 8 10 C7.34 10 6.68 10 6 10 C6 8.35 6 6.7 6 5 C4.35 5 2.7 5 1 5 C0.67 3.35 0.34 1.7 0 0 Z " fill="#DF7219" transform="translate(212,226)"/>
<path d="M0 0 C1.6875 2.5625 1.6875 2.5625 3 5 C0.84035715 4.53721939 -0.96780167 4.01661849 -2.9375 3 C-5.26985735 1.86916007 -7.45252434 1.42457928 -10 1 C-10 0.67 -10 0.34 -10 0 C-3.375 -1.125 -3.375 -1.125 0 0 Z " fill="#D36514" transform="translate(170,113)"/>
<path d="M0 0 C0.33 0.66 0.66 1.32 1 2 C1.5775 1.649375 2.155 1.29875 2.75 0.9375 C5.35801776 -0.14917407 6.39417629 0.06934867 9 1 C9 1.66 9 2.32 9 3 C4.8204355 5.78637633 2.85331323 4.79562512 -2 4 C-2 3.34 -2 2.68 -2 2 C-1.34 2 -0.68 2 0 2 C0 1.34 0 0.68 0 0 Z " fill="#D76E1A" transform="translate(86,48)"/>
<path d="M0 0 C1.125 1.75 1.125 1.75 2 4 C1.4375 6.1875 1.4375 6.1875 0 8 C-2.625 8.75 -2.625 8.75 -5 9 C-4.67 8.34 -4.34 7.68 -4 7 C-3.01 7 -2.02 7 -1 7 C-1.020625 6.030625 -1.04125 5.06125 -1.0625 4.0625 C-1 1 -1 1 0 0 Z " fill="#CB722F" transform="translate(183,152)"/>
<path d="M0 0 C-1.72290605 0.70304222 -3.45367466 1.38683491 -5.1875 2.0625 C-6.63189453 2.63677734 -6.63189453 2.63677734 -8.10546875 3.22265625 C-11.20934675 4.05622133 -12.94919117 3.88679818 -16 3 C-16 2.67 -16 2.34 -16 2 C-14.08654673 1.46748234 -12.1690705 0.94940517 -10.25 0.4375 C-9.18265625 0.14746094 -8.1153125 -0.14257812 -7.015625 -0.44140625 C-4.15664073 -0.97098494 -2.68402617 -0.98370862 0 0 Z " fill="#BC672B" transform="translate(198,37)"/>
<path d="M0 0 C0 0.66 0 1.32 0 2 C2.64 2 5.28 2 8 2 C8 2.33 8 2.66 8 3 C6.08364783 3.05423638 4.16685075 3.09289963 2.25 3.125 C0.64898437 3.15980469 0.64898437 3.15980469 -0.984375 3.1953125 C-3.92470106 3.00487687 -5.52361878 2.52670104 -8 1 C-2.25 0 -2.25 0 0 0 Z " fill="#CC6619" transform="translate(159,125)"/>
<path d="M0 0 C2 3 2 3 3 6 C1.02 6 -0.96 6 -3 6 C-3.33 5.01 -3.66 4.02 -4 3 C-2.68 3 -1.36 3 0 3 C0 2.01 0 1.02 0 0 Z " fill="#E7741E" transform="translate(39,260)"/>
<path d="M0 0 C-3.14930893 1.04976964 -5.38814456 1.10131595 -8.6875 1.0625 C-9.68136719 1.05347656 -10.67523438 1.04445312 -11.69921875 1.03515625 C-12.83810547 1.01775391 -12.83810547 1.01775391 -14 1 C-14 0.67 -14 0.34 -14 0 C-12.42074025 -0.39180108 -10.83631206 -0.76280736 -9.25 -1.125 C-8.36828125 -1.33382812 -7.4865625 -1.54265625 -6.578125 -1.7578125 C-3.67124507 -2.03088304 -2.43338652 -1.53508028 0 0 Z " fill="#C46717" transform="translate(127,36)"/>
<path d="M0 0 C0.66 0.66 1.32 1.32 2 2 C0.824375 1.9690625 0.824375 1.9690625 -0.375 1.9375 C-2.98114961 1.81315937 -2.98114961 1.81315937 -5 3 C-7.125 2.0625 -7.125 2.0625 -9 1 C-3.375 -1.125 -3.375 -1.125 0 0 Z " fill="#DB7624" transform="translate(208,36)"/>
<path d="M0 0 C0.99 0.33 1.98 0.66 3 1 C3.33 2.98 3.66 4.96 4 7 C3.01 7.495 3.01 7.495 2 8 C2 7.34 2 6.68 2 6 C1.01 5.67 0.02 5.34 -1 5 C-0.67 3.35 -0.34 1.7 0 0 Z " fill="#D96F1B" transform="translate(218,86)"/>
<path d="M0 0 C1.65 0 3.3 0 5 0 C5 0.66 5 1.32 5 2 C5.66 2 6.32 2 7 2 C7 2.66 7 3.32 7 4 C4.36 3.34 1.72 2.68 -1 2 C-0.67 1.34 -0.34 0.68 0 0 Z " fill="#E88132" transform="translate(161,186)"/>
<path d="M0 0 C-0.99 0.495 -0.99 0.495 -2 1 C-2 1.66 -2 2.32 -2 3 C-3.65 3 -5.3 3 -7 3 C-7 2.01 -7 1.02 -7 0 C-4.3333581 -1.33332095 -2.83319697 -0.67102033 0 0 Z " fill="#D8792B" transform="translate(151,158)"/>
<path d="M0 0 C2.97 0 5.94 0 9 0 C9 0.33 9 0.66 9 1 C6.03 1 3.06 1 0 1 C0 0.67 0 0.34 0 0 Z " fill="#A47B6A" transform="translate(136,246)"/>
<path d="M0 0 C2.97 0 5.94 0 9 0 C9 0.33 9 0.66 9 1 C6.03 1 3.06 1 0 1 C0 0.67 0 0.34 0 0 Z " fill="#A47B6A" transform="translate(111,246)"/>
<path d="M0 0 C1.485 0.99 1.485 0.99 3 2 C1.68 2.33 0.36 2.66 -1 3 C-0.67 2.01 -0.34 1.02 0 0 Z " fill="#B07258" transform="translate(53,245)"/>
<path d="M0 0 C4 1 4 1 4 1 Z " fill="#BF4040" transform="translate(157,245)"/>
<path d="M0 0 C0.66 0 1.32 0 2 0 C1.67 0.99 1.34 1.98 1 3 C0.67 2.01 0.34 1.02 0 0 Z " fill="#9E6449" transform="translate(53,52)"/>
<path d="M0 0 C3 1 3 1 3 1 Z " fill="#9C8E71" transform="translate(146,246)"/>
<path d="M0 0 C3 1 3 1 3 1 Z " fill="#9C7163" transform="translate(99,245)"/>
<path d="M0 0 C3 1 3 1 3 1 Z " fill="#9C6363" transform="translate(118,122)"/>
<path d="M0 0 C3 1 3 1 3 1 Z " fill="#A4695A" transform="translate(77,57)"/>
<path d="" fill="#AA7F55" transform="translate(0,0)"/>
<path d="M0 0 C2 1 2 1 2 1 Z " fill="#BF4040" transform="translate(57,245)"/>
<path d="M0 0 C2 1 2 1 2 1 Z " fill="#D4D42A" transform="translate(199,244)"/>
<path d="M0 0 C2 1 2 1 2 1 Z " fill="#BF4040" transform="translate(150,176)"/>
<path d="M0 0 C2 1 2 1 2 1 Z " fill="#AA5555" transform="translate(182,57)"/>
<path d="M0 0 C2 1 2 1 2 1 Z " fill="#BF4040" transform="translate(59,54)"/>
<path d="M0 0 C2 1 2 1 2 1 Z " fill="#897664" transform="translate(56,53)"/>
<path d="M0 0 C2 1 2 1 2 1 Z " fill="#AA6A55" transform="translate(205,52)"/>
<path d="" fill="#999966" transform="translate(0,0)"/>
<path d="" fill="#AA5555" transform="translate(0,0)"/>
<path d="" fill="#808080" transform="translate(0,0)"/>
<path d="" fill="#996666" transform="translate(0,0)"/>
<path d="" fill="#FF0000" transform="translate(0,0)"/>
<path d="" fill="#FF0000" transform="translate(0,0)"/>
<path d="" fill="#FF0000" transform="translate(0,0)"/>
<path d="" fill="#808080" transform="translate(0,0)"/>
<path d="" fill="#808040" transform="translate(0,0)"/>
<path d="" fill="#FF0000" transform="translate(0,0)"/>
<path d="" fill="#808080" transform="translate(0,0)"/>
<path d="" fill="#808080" transform="translate(0,0)"/>
<path d="" fill="#AA5555" transform="translate(0,0)"/>
<path d="" fill="#FF0000" transform="translate(0,0)"/>
<path d="" fill="#FF0000" transform="translate(0,0)"/>
<path d="" fill="#FF0000" transform="translate(0,0)"/>
<path d="" fill="#FF0000" transform="translate(0,0)"/>
<path d="" fill="#808080" transform="translate(0,0)"/>
<path d="" fill="#808080" transform="translate(0,0)"/>
<path d="" fill="#FF0000" transform="translate(0,0)"/>
<path d="" fill="#996666" transform="translate(0,0)"/>
<path d="" fill="#808080" transform="translate(0,0)"/>
<path d="" fill="#808080" transform="translate(0,0)"/>
</svg>
